<svg width="48" height="48" viewBox="0 0 48 48" fill="none" xmlns="http://www.w3.org/2000/svg">
<path d="M41.038 12.488C41.038 12.2461 40.9904 12.0066 40.8978 11.7831C40.8052 11.5596 40.6695 11.3566 40.4985 11.1855C40.3274 11.0145 40.1244 10.8788 39.9009 10.7862C39.6774 10.6936 39.4379 10.646 39.196 10.646H8.804C8.56211 10.646 8.32258 10.6936 8.0991 10.7862C7.87562 10.8788 7.67255 11.0145 7.50151 11.1855C7.33046 11.3566 7.19478 11.5596 7.10221 11.7831C7.00964 12.0066 6.962 12.2461 6.962 12.488V35.512C6.962 36.0005 7.15607 36.469 7.50151 36.8145C7.84695 37.1599 8.31547 37.354 8.804 37.354H39.196C39.6845 37.354 40.153 37.1599 40.4985 36.8145C40.8439 36.469 41.038 36.0005 41.038 35.512V12.488Z" stroke="white" stroke-linecap="round" stroke-linejoin="round"/>
<path d="M38.06 10.646L37.478 8.47C37.3515 7.99821 37.0427 7.59599 36.6196 7.35183C36.1966 7.10766 35.6938 7.04154 35.222 7.168L22.242 10.646M41.038 33.26L42.134 32.966C42.3677 32.9034 42.5868 32.7955 42.7788 32.6482C42.9707 32.501 43.1318 32.3174 43.2528 32.1079C43.3738 31.8984 43.4523 31.6671 43.484 31.4273C43.5156 31.1874 43.4996 30.9437 43.437 30.71L41.037 21.757M9.94 37.354L10.522 39.529C10.5846 39.7627 10.6925 39.9818 10.8398 40.1738C10.987 40.3657 11.1706 40.5268 11.3801 40.6478C11.5896 40.7688 11.8209 40.8473 12.0607 40.8789C12.3006 40.9106 12.5443 40.8946 12.778 40.832L25.758 37.354M6.962 14.74L5.866 15.034C5.6323 15.0966 5.41321 15.2045 5.22124 15.3518C5.02928 15.499 4.8682 15.6826 4.7472 15.8921C4.6262 16.1016 4.54766 16.3329 4.51605 16.5727C4.48445 16.8126 4.5004 17.0563 4.563 17.29L6.977 26.298M12.948 16.172H35.051M12.948 21.391H35.051M12.948 26.609H35.051M12.948 31.828H24" stroke="white" stroke-linecap="round" stroke-linejoin="round"/>
</svg>
